<svg width="170" height="74" viewBox="0 0 170 74" fill="none" xmlns="http://www.w3.org/2000/svg">
<mask id="mask0_911_142" style="mask-type:luminance" maskUnits="userSpaceOnUse" x="28" y="0" width="77" height="43">
<path d="M28.0227 0H104.137V42.4702H28.0227V0Z" fill="white"/>
</mask>
<g mask="url(#mask0_911_142)">
<path d="M104.137 38.0582C104.137 38.6798 104.122 39.3034 104.092 39.9251C104.062 40.5468 104.017 41.1684 103.954 41.7882C103.894 42.408 103.817 43.026 103.726 43.642C103.634 44.258 103.529 44.8722 103.406 45.4825C103.286 46.0929 103.148 46.7014 102.997 47.3042C102.847 47.909 102.681 48.5099 102.5 49.1052C102.319 49.7005 102.123 50.2921 101.914 50.878C101.703 51.4657 101.479 52.046 101.242 52.6224C101.002 53.197 100.75 53.766 100.484 54.3292C100.219 54.8925 99.938 55.4483 99.6441 55.9984C99.3502 56.5466 99.0431 57.0891 98.7229 57.6223C98.4026 58.1573 98.071 58.6829 97.7244 59.201C97.3778 59.719 97.0198 60.2277 96.6487 60.7288C96.2776 61.228 95.8952 61.7197 95.4995 62.2001C95.1039 62.6824 94.697 63.1533 94.2788 63.6149C93.8606 64.0764 93.431 64.5286 92.9921 64.9675C92.5513 65.4083 92.0991 65.8379 91.6376 66.2561C91.176 66.6743 90.7051 67.0812 90.2247 67.4768C89.7424 67.8725 89.2507 68.2549 88.7515 68.626C88.2504 68.9971 87.7417 69.3551 87.2237 69.7017C86.7056 70.0465 86.18 70.3799 85.6468 70.7002C85.1118 71.0204 84.5693 71.3275 84.0211 71.6214C83.471 71.9153 82.9152 72.1941 82.3519 72.4616C81.7887 72.7272 81.2197 72.9797 80.6451 73.2189C80.0687 73.4563 79.4884 73.6805 78.9026 73.8896C78.3148 74.1006 77.7232 74.2946 77.1279 74.4755C76.5326 74.6563 75.9317 74.824 75.327 74.9747C74.7241 75.1254 74.1156 75.2629 73.5052 75.3835C72.8949 75.5059 72.2807 75.6114 71.6647 75.7037C71.0487 75.7942 70.4307 75.8714 69.8109 75.9317C69.1912 75.992 68.5695 76.0391 67.9478 76.0692C67.3261 76.0994 66.7044 76.1144 66.0809 76.1144C65.4573 76.1144 64.8356 76.0994 64.2139 76.0692C63.5904 76.0391 62.9706 75.992 62.3508 75.9317C61.731 75.8714 61.1131 75.7942 60.497 75.7037C59.881 75.6114 59.2669 75.5059 58.6565 75.3835C58.0461 75.2629 57.4376 75.1254 56.8329 74.9747C56.2301 74.824 55.6291 74.6563 55.0338 74.4755C54.4366 74.2946 53.8469 74.1006 53.2592 73.8896C52.6733 73.6805 52.093 73.4563 51.5166 73.2189C50.942 72.9797 50.3731 72.7272 49.8098 72.4616C49.2465 72.1941 48.6908 71.9153 48.1407 71.6214C47.5906 71.3275 47.0499 71.0204 46.5149 70.7002C45.9817 70.3799 45.4543 70.0465 44.9381 69.7017C44.42 69.3551 43.9095 68.9971 43.4102 68.626C42.9091 68.2549 42.4193 67.8725 41.937 67.4768C41.4567 67.0812 40.9838 66.6743 40.5223 66.2561C40.0607 65.8379 39.6105 65.4083 39.1696 64.9675C38.7307 64.5286 38.3012 64.0764 37.8829 63.6149C37.4647 63.1533 37.0578 62.6824 36.6622 62.2001C36.2666 61.7197 35.8841 61.228 35.513 60.7288C35.1419 60.2277 34.784 59.719 34.4373 59.201C34.0907 58.6829 33.7572 58.1573 33.437 57.6223C33.1186 57.0891 32.8115 56.5466 32.5176 55.9984C32.2238 55.4483 31.9431 54.8925 31.6774 54.3292C31.4118 53.766 31.1594 53.197 30.9201 52.6224C30.6827 52.046 30.4586 51.4657 30.2476 50.878C30.0385 50.2921 29.8425 49.7005 29.6617 49.1052C29.4808 48.5099 29.315 47.909 29.1643 47.3042C29.0117 46.7014 28.8761 46.0929 28.7555 45.4825C28.6331 44.8722 28.5276 44.258 28.4353 43.642C28.3448 43.026 28.2676 42.408 28.2073 41.7882C28.1452 41.1684 28.0999 40.5468 28.0698 39.9251C28.0397 39.3034 28.0227 38.6798 28.0227 38.0582C28.0227 37.4346 28.0397 36.8129 28.0698 36.1912C28.0999 35.5677 28.1452 34.9479 28.2073 34.3281C28.2676 33.7083 28.3448 33.0904 28.4353 32.4743C28.5276 31.8583 28.6331 31.2442 28.7555 30.6338C28.8761 30.0215 29.0117 29.4149 29.1643 28.8102C29.315 28.2073 29.4808 27.6064 29.6617 27.0111C29.8425 26.4139 30.0385 25.8224 30.2476 25.2365C30.4586 24.6506 30.6827 24.0685 30.9201 23.4939C31.1594 22.9193 31.4118 22.3485 31.6774 21.7871C31.9431 21.2238 32.2238 20.6662 32.5176 20.118C32.8115 19.5679 33.1186 19.0272 33.437 18.4922C33.7572 17.959 34.0907 17.4315 34.4373 16.9135C34.784 16.3973 35.1419 15.8868 35.513 15.3875C35.8841 14.8864 36.2666 14.3966 36.6622 13.9143C37.0578 13.434 37.4647 12.9611 37.8829 12.4995C38.3012 12.038 38.7307 11.5878 39.1696 11.1469C39.6105 10.7061 40.0607 10.2766 40.5223 9.85835C40.9838 9.44013 41.4567 9.03509 41.937 8.63948C42.4193 8.24386 42.9091 7.86143 43.4102 7.49031C43.9095 7.11919 44.42 6.76125 44.9381 6.41461C45.4543 6.06798 45.9817 5.73453 46.5149 5.41427C47.0499 5.09401 47.5906 4.78694 48.1407 4.49494C48.6908 4.20105 49.2465 3.92036 49.8098 3.65473C50.3731 3.38722 50.942 3.13666 51.5166 2.89741C52.093 2.66004 52.6733 2.43586 53.2592 2.22486C53.8469 2.01575 54.4366 1.81983 55.0338 1.63898C55.6291 1.45812 56.2301 1.29234 56.8329 1.14163C57.4376 0.989037 58.0461 0.853398 58.6565 0.730946C59.2669 0.610377 59.881 0.502996 60.497 0.41257C61.1131 0.32026 61.731 0.244904 62.3508 0.18462C62.9706 0.122452 63.5904 0.0772391 64.2139 0.047097C64.8356 0.0150712 65.4573 0 66.0809 0C66.7044 0 67.3261 0.0150712 67.9478 0.047097C68.5695 0.0772391 69.1912 0.122452 69.8109 0.18462C70.4307 0.244904 71.0487 0.32026 71.6647 0.41257C72.2807 0.502996 72.8949 0.610377 73.5052 0.730946C74.1156 0.853398 74.7241 0.989037 75.327 1.14163C75.9317 1.29234 76.5326 1.45812 77.1279 1.63898C77.7232 1.81983 78.3148 2.01575 78.9026 2.22486C79.4884 2.43586 80.0687 2.66004 80.6451 2.89741C81.2197 3.13666 81.7887 3.38722 82.3519 3.65473C82.9152 3.92036 83.471 4.20105 84.0211 4.49494C84.5693 4.78694 85.1118 5.09401 85.6468 5.41427C86.18 5.73453 86.7056 6.06798 87.2237 6.41461C87.7417 6.76125 88.2504 7.11919 88.7515 7.49031C89.2507 7.86143 89.7424 8.24386 90.2247 8.63948C90.7051 9.03509 91.176 9.44013 91.6376 9.85835C92.0991 10.2766 92.5513 10.7061 92.9921 11.1469C93.431 11.5878 93.8606 12.038 94.2788 12.4995C94.697 12.9611 95.1039 13.434 95.4995 13.9143C95.8952 14.3966 96.2776 14.8864 96.6487 15.3875C97.0198 15.8868 97.3778 16.3973 97.7244 16.9135C98.071 17.4315 98.4026 17.959 98.7229 18.4922C99.0431 19.0272 99.3502 19.5679 99.6441 20.118C99.938 20.6662 100.219 21.2238 100.484 21.7871C100.75 22.3485 101.002 22.9193 101.242 23.4939C101.479 24.0685 101.703 24.6506 101.914 25.2365C102.123 25.8224 102.319 26.4139 102.5 27.0111C102.681 27.6064 102.847 28.2073 102.997 28.8102C103.148 29.4149 103.286 30.0215 103.406 30.6338C103.529 31.2442 103.634 31.8583 103.726 32.4743C103.817 33.0904 103.894 33.7083 103.954 34.3281C104.017 34.9479 104.062 35.5677 104.092 36.1912C104.122 36.8129 104.137 37.4346 104.137 38.0582Z" fill="#EE3EC9"/>
</g>
<mask id="mask1_911_142" style="mask-type:luminance" maskUnits="userSpaceOnUse" x="0" y="11" width="170" height="48">
<path d="M0 11.5388H169.176V58.5359H0V11.5388Z" fill="white"/>
</mask>
<g mask="url(#mask1_911_142)">
<path d="M37.4685 58.3983C65.6419 58.3983 89.4674 27.8323 99.1825 30.6185C103.807 31.9278 106.127 30.1758 108.18 28.4276C111.015 26.0049 113.329 23.5804 120.514 29.2678C127.316 34.6501 131.337 28.0188 135.928 21.3894C139.692 15.9544 143.836 10.5213 150.211 11.6987C164.361 14.3211 169.176 42.2704 169.176 42.2704H0C0 42.2704 17.8253 58.3983 37.4685 58.3983Z" fill="#4C0BD1"/>
</g>
<mask id="mask2_911_142" style="mask-type:luminance" maskUnits="userSpaceOnUse" x="0" y="33" width="170" height="29">
<path d="M0 33.6254H169.176V61.9137H0V33.6254Z" fill="white"/>
</mask>
<g mask="url(#mask2_911_142)">
<path d="M5.9135 46.238C19.1779 55.1487 36.8336 53.8394 48.6192 43.073C48.915 42.7773 49.2522 42.5229 49.5479 42.2705H0L5.9135 46.238ZM103.956 51.5599C115.446 63.0007 133.315 64.9863 146.999 56.3299L169.176 42.2705H94.4521C95.1266 42.8602 95.8462 43.495 96.4792 44.128L103.956 51.5599ZM49.5479 42.2705H94.4521C81.6097 31.3346 62.5599 31.2498 49.5479 42.2705Z" fill="#E43397"/>
</g>
<mask id="mask3_911_142" style="mask-type:luminance" maskUnits="userSpaceOnUse" x="0" y="30" width="68" height="30">
<path d="M0 30.6922H67.3431V59.3799H0V30.6922Z" fill="white"/>
</mask>
<g mask="url(#mask3_911_142)">
<path d="M59.1539 31.0407C61.7574 31.0407 64.4438 31.994 67.2056 34.249L67.3318 34.3526C60.9586 35.2154 54.7701 37.8491 49.5479 42.2705H42.4099C47.4663 36.2402 53.0802 31.0369 59.1539 31.0407ZM0 42.2705C0 42.2705 12.3846 53.4758 27.8833 57.2059C25.4249 58.6961 23.038 59.3196 20.7566 59.3196C8.86177 59.3196 0 42.2705 0 42.2705Z" fill="#00C4CC"/>
</g>
<mask id="mask4_911_142" style="mask-type:luminance" maskUnits="userSpaceOnUse" x="0" y="42" width="36" height="16">
<path d="M0 42.2667H35.2719V57.2172H0V42.2667Z" fill="white"/>
</mask>
<g mask="url(#mask4_911_142)">
<path d="M0 42.2706L5.9135 46.238C11.7931 50.1866 18.5355 52.1308 25.2478 52.1308C28.6143 52.1308 31.977 51.641 35.2154 50.6708C32.9057 53.1914 30.6376 55.3937 28.5973 56.752C28.3599 56.9102 28.1188 57.0628 27.8833 57.206C12.3846 53.4759 0 42.2706 0 42.2706Z" fill="#7900FF"/>
</g>
<path d="M76.981 42.2705H94.4521C95.1265 42.8602 95.8462 43.495 96.4792 44.128L103.956 51.5599C105.654 53.2516 107.49 54.7361 109.435 56.0115C109.414 56.0191 109.388 56.0266 109.363 56.0341C106.63 56.9233 104.116 57.3265 101.76 57.3265C92.1444 57.3265 85.1533 50.5916 76.5571 42.5625C76.6965 42.4645 76.8416 42.3685 76.981 42.2705Z" fill="#00C4CC"/>
<path d="M76.2444 42.2705H76.981C76.8416 42.3685 76.6965 42.4645 76.5571 42.5625C76.4516 42.4645 76.3518 42.3685 76.2444 42.2705Z" fill="#7900FF"/>
<mask id="mask5_911_142" style="mask-type:luminance" maskUnits="userSpaceOnUse" x="123" y="50" width="33" height="24">
<path d="M123.287 50.9476H155.599V73.3131H123.287V50.9476Z" fill="white"/>
</mask>
<g mask="url(#mask5_911_142)">
<path d="M155.215 51.1209C149.42 59.8433 146.125 72.0376 137.073 73.2188C136.568 73.2829 136.088 73.3149 135.628 73.3149C130.061 73.3149 127.626 68.7785 125.118 64.2403C124.574 63.255 124.029 62.2659 123.441 61.324C125.114 61.5708 126.8 61.6932 128.492 61.6932C134.877 61.6932 141.301 59.9337 146.999 56.3298L155.215 51.1209Z" fill="#00C4CC"/>
</g>
<mask id="mask6_911_142" style="mask-type:luminance" maskUnits="userSpaceOnUse" x="0" y="34" width="170" height="28">
<path d="M0 34.0681H169.176V61.9137H0V34.0681Z" fill="white"/>
</mask>
<g mask="url(#mask6_911_142)">
<path d="M67.3318 34.3525C70.5758 37.0201 73.4921 39.7273 76.2444 42.2705H49.5479C54.7701 37.849 60.9586 35.2154 67.3318 34.3525ZM0 42.2705H42.4099C40.1154 45.0172 37.6456 48.022 35.2154 50.6707C31.977 51.6409 28.6143 52.1307 25.2478 52.1307C18.5355 52.1307 11.7931 50.1866 5.9135 46.2379L0 42.2705ZM94.4521 42.2705H169.176C162.671 42.2705 158.534 46.1268 155.215 51.121L146.999 56.3299C141.3 59.9338 134.876 61.6933 128.492 61.6933C126.8 61.6933 125.114 61.5708 123.441 61.3241C121.346 57.9444 118.782 55.1675 114.225 55.1675C112.831 55.1675 111.247 55.4294 109.435 56.0115C107.49 54.7361 105.654 53.2516 103.956 51.5599L96.4792 44.128C95.8462 43.495 95.1266 42.8601 94.4521 42.2705Z" fill="#CB88FF"/>
</g>
</svg>
