<svg width="67" height="67" viewBox="0 0 67 67" fill="none" xmlns="http://www.w3.org/2000/svg">
<path d="M33.4999 5.58325C29.8338 5.58325 26.2037 6.30534 22.8167 7.70828C19.4297 9.11123 16.3522 11.1676 13.7599 13.7599C8.52446 18.9952 5.58325 26.096 5.58325 33.4999C5.58325 45.8391 13.5953 56.3078 24.6783 60.0208C26.0741 60.2441 26.5208 59.3787 26.5208 58.6249V53.907C18.7878 55.582 17.1408 50.1662 17.1408 50.1662C15.8566 46.9278 14.042 46.0624 14.042 46.0624C11.5016 44.3316 14.2374 44.3874 14.2374 44.3874C17.0291 44.5828 18.5087 47.2628 18.5087 47.2628C20.9374 51.5062 25.0412 50.2499 26.6324 49.5799C26.8837 47.7653 27.6095 46.537 28.3912 45.8391C22.1937 45.1412 15.6891 42.7403 15.6891 32.1041C15.6891 29.0053 16.7499 26.5208 18.5645 24.5387C18.2853 23.8408 17.3083 20.9374 18.8437 17.1687C18.8437 17.1687 21.1887 16.4149 26.5208 20.0162C28.7262 19.402 31.127 19.0949 33.4999 19.0949C35.8728 19.0949 38.2737 19.402 40.4791 20.0162C45.8112 16.4149 48.1562 17.1687 48.1562 17.1687C49.6916 20.9374 48.7145 23.8408 48.4353 24.5387C50.2499 26.5208 51.3107 29.0053 51.3107 32.1041C51.3107 42.7683 44.7783 45.1133 38.5528 45.8112C39.5578 46.6766 40.4791 48.3795 40.4791 50.9758V58.6249C40.4791 59.3787 40.9258 60.272 42.3495 60.0208C53.4324 56.2799 61.4166 45.8391 61.4166 33.4999C61.4166 29.8339 60.6945 26.2037 59.2916 22.8167C57.8886 19.4297 55.8323 16.3522 53.24 13.7599C50.6477 11.1676 47.5702 9.11123 44.1832 7.70828C40.7962 6.30534 37.166 5.58325 33.4999 5.58325Z" fill="#8665CD"/>
</svg>
